# xmcd CD database file
#
# Track frame offsets:
#	150
#	24143
#	46973
#	67523
#	81842
#	101230
#	117087
#	133359
#	150749
#	173312
#	194002
#	213985
#
# Disc length: 3109 seconds
#
# Revision: 2
# Processed by: cddbd v1.5.1PL0 Copyright (c) Steve Scherf et al.
# Submitted via: CDex 1.51
#
DISCID=970c230c
DTITLE=Altura de Los Andes Andes - Amor Sertanejo
DYEAR=1900
DGENRE=
TTITLE0=TE AMO CADA VEZ MAIS
TTITLE1=EVIDENCIAS
TTITLE2=CADA VOLTA EH UM RECOMECO
TTITLE3=CHORA PEITO
TTITLE4=EU JURO
TTITLE5=PAGINA DE AMIGOS
TTITLE6=EH O AMOR
TTITLE7=SEU AMOR AINDA EH TUDO
TTITLE8=PRECISO SER AMADO
TTITLE9=ESTOU APAIXONADO
TTITLE10=SE EH AMOR NAO SEI
TTITLE11=DESCULPE MAS EU VOU CHORAR
EXTD=kiroiva@hotmail.com
EXTT0=
EXTT1=
EXTT2=
EXTT3=
EXTT4=
EXTT5=
EXTT6=
EXTT7=
EXTT8=
EXTT9=
EXTT10=
EXTT11=
PLAYORDER=
